<svg id="Livello_1" data-name="Livello 1" xmlns="http://www.w3.org/2000/svg" viewBox="0 0 560 482"><defs><style>.cls-1{fill:#0e72ba;}</style></defs><path class="cls-1" d="M293.51,382.27,346,436,493.34,291.7,346,147.43l-52.47,53.69,54.1,53H207.84v75.2H347.61ZM225.34,311.8V271.6H390.5l-72.27-70.74,28-28.67L468.31,291.71,346.25,411.22l-28-28.65,72.27-70.74H225.34Z" transform="translate(-69.64 -109)"/><path class="cls-1" d="M112.26,474.4H323v64.1H217.72V591H480.83V538.5H375.53V474.4H587a42.68,42.68,0,0,0,42.63-42.63V151.63A42.68,42.68,0,0,0,587,109H112.27a42.68,42.68,0,0,0-42.63,42.63V431.77a42.69,42.69,0,0,0,42.63,42.63ZM463.32,556v17.5H235.22V556h105.3V474.4H358V556ZM87.13,151.63a25.16,25.16,0,0,1,25.13-25.13H587a25.15,25.15,0,0,1,25.13,25.13V431.77A25.15,25.15,0,0,1,587,456.9H112.26a25.15,25.15,0,0,1-25.13-25.13Z" transform="translate(-69.64 -109)"/></svg>