<?xml version="1.0" encoding="utf-8"?>
<!-- Generator: Adobe Illustrator 26.0.2, SVG Export Plug-In . SVG Version: 6.00 Build 0)  -->
<svg version="1.1" id="Livello_1" xmlns="http://www.w3.org/2000/svg" xmlns:xlink="http://www.w3.org/1999/xlink" x="0px" y="0px"
	 viewBox="0 0 1920 1080" style="enable-background:new 0 0 1920 1080;" xml:space="preserve">
<style type="text/css">
	.st0{fill:#2F2F2F;}
	.st1{fill:#D3341F;}
	.st2{fill:url(#SVGID_1_);}
	.st3{fill:#0E72BA;}
	.st4{fill:#F3F3F3;}
</style>
<path class="st0" d="M643.2,470.1L582,537l69,74.9h-47l-45.4-49.5l-45.4,49.5h-47.1l68.9-75.2l-61-66.7h46.7l37.7,41.1l37.9-41.1
	H643.2z"/>
<path class="st0" d="M824.4,564c0,5.9-0.7,11.1-2.2,15.8c-1.5,4.7-3.5,8.8-5.9,12.3c-2.4,3.5-5.3,6.6-8.5,9.1
	c-3.2,2.5-6.6,4.5-10.2,6.1c-3.5,1.6-7.1,2.7-10.7,3.5c-3.6,0.7-7,1.1-10.2,1.1h-61.5v-34.1h61.5c4.5,0,8-1.2,10.2-3.5
	c2.3-2.4,3.4-5.8,3.4-10.2v-45.9c0-4.7-1.2-8.2-3.5-10.5c-2.3-2.3-5.7-3.4-10.2-3.4h-61.3c-4.6,0-8.1,1.2-10.5,3.5
	c-2.4,2.3-3.5,5.7-3.5,10.2v138.4h-34.1V517.8c0-5.9,0.7-11.1,2.2-15.7c1.5-4.6,3.5-8.7,6-12.3s5.4-6.6,8.6-9.1
	c3.2-2.5,6.6-4.5,10.2-6.1c3.5-1.6,7.1-2.7,10.8-3.5c3.6-0.7,7-1.1,10.2-1.1h61.5c5.9,0,11.1,0.7,15.7,2.2c4.6,1.5,8.7,3.5,12.3,5.9
	c3.5,2.4,6.6,5.3,9.1,8.5c2.5,3.2,4.5,6.6,6.1,10.2c1.6,3.5,2.7,7.1,3.5,10.7c0.7,3.6,1.1,7,1.1,10.2V564z"/>
<path class="st0" d="M1006.2,517c0,4.7-0.8,9.8-2.5,15.3c-1.7,5.5-4.4,10.5-8.1,15.2c-3.7,4.7-8.6,8.6-14.6,11.7
	c-6,3.1-13.3,4.7-21.8,4.7h-61.5v-32.4h61.5c4.6,0,8.2-1.4,10.8-4.3c2.5-2.8,3.8-6.4,3.8-10.6c0-4.5-1.4-8-4.3-10.5
	c-2.8-2.5-6.3-3.8-10.3-3.8h-61.5c-4.6,0-8.2,1.4-10.8,4.3c-2.5,2.8-3.8,6.4-3.8,10.6v47.6c0,4.5,1.4,8.1,4.3,10.6
	c2.8,2.5,6.4,3.8,10.6,3.8h61.3v32.5h-61.5c-4.7,0-9.8-0.8-15.3-2.5c-5.5-1.7-10.5-4.3-15.2-8.1c-4.7-3.7-8.6-8.6-11.7-14.6
	c-3.1-6-4.7-13.3-4.7-21.8V517c0-4.7,0.8-9.8,2.5-15.3c1.7-5.5,4.3-10.5,8.1-15.2c3.7-4.7,8.6-8.6,14.6-11.7
	c6-3.1,13.3-4.7,21.8-4.7h61.5c4.7,0,9.8,0.8,15.3,2.5c5.5,1.7,10.5,4.4,15.2,8.1c4.7,3.7,8.6,8.6,11.7,14.6
	C1004.6,501.2,1006.2,508.5,1006.2,517z"/>
<path class="st0" d="M1153.2,504.2h-76.8c-4.6,0-8.1,1.2-10.5,3.5c-2.4,2.3-3.5,5.7-3.5,10.2v94.1h-34.1v-94.1
	c0-5.9,0.7-11.1,2.2-15.7c1.5-4.6,3.5-8.7,6-12.3c2.5-3.5,5.4-6.6,8.6-9.1c3.2-2.5,6.6-4.5,10.2-6.1c3.5-1.6,7.1-2.7,10.8-3.5
	c3.6-0.7,7-1.1,10.2-1.1h77V504.2z"/>
<rect x="329" y="500.6" class="st1" width="107.7" height="34.4"/>
<linearGradient id="SVGID_1_" gradientUnits="userSpaceOnUse" x1="281.2542" y1="517.8267" x2="1624.7089" y2="517.8267">
	<stop  offset="0" style="stop-color:#D3341F"/>
	<stop  offset="1" style="stop-color:#0E72BA"/>
</linearGradient>
<path class="st2" d="M452.1,423.8H298.4c-2.4,0-4.7,0.4-6.8,1.3c-2.1,0.9-3.9,2.1-5.4,3.7c-1.5,1.6-2.7,3.4-3.6,5.5
	c-0.9,2.1-1.3,4.3-1.3,6.7V564c0,8.8,1.6,16.3,4.8,22.4c3.2,6.1,7.2,11,11.9,14.8c4.8,3.8,9.9,6.5,15.5,8.2
	c5.6,1.7,10.8,2.5,15.5,2.5h123.1v-34.1H329.3c-4.5,0-8-1.2-10.4-3.5c-2.4-2.4-3.5-5.8-3.5-10.2V457.9h136.7h746.3v154h34.1v-154
	h392.2v-34.1H452.1z"/>
<path class="st0" d="M1449.2,517c0,4.7-0.8,9.8-2.5,15.3c-1.7,5.5-4.4,10.5-8.1,15.2c-3.7,4.7-8.6,8.6-14.6,11.7
	c-6,3.1-13.3,4.7-21.8,4.7h-61.5v-32.4h61.5c4.6,0,8.2-1.4,10.8-4.3c2.5-2.8,3.8-6.4,3.8-10.6c0-4.5-1.4-8-4.3-10.5
	c-2.8-2.5-6.3-3.8-10.3-3.8h-61.5c-4.6,0-8.2,1.4-10.8,4.3c-2.5,2.8-3.8,6.4-3.8,10.6v47.6c0,4.5,1.4,8.1,4.3,10.6
	c2.8,2.5,6.4,3.8,10.6,3.8h108.2v32.5h-108.5c-4.7,0-9.8-0.8-15.3-2.5c-5.5-1.7-10.5-4.3-15.2-8.1c-4.7-3.7-8.6-8.6-11.7-14.6
	c-3.1-6-4.7-13.3-4.7-21.8V517c0-4.7,0.8-9.8,2.5-15.3c1.7-5.5,4.3-10.5,8.1-15.2c3.7-4.7,8.6-8.6,14.6-11.7
	c6-3.1,13.3-4.7,21.8-4.7h61.5c4.7,0,9.8,0.8,15.3,2.5c5.5,1.7,10.5,4.4,15.2,8.1c4.7,3.7,8.6,8.6,11.7,14.6
	C1447.6,501.2,1449.2,508.5,1449.2,517z"/>
<path class="st0" d="M1624.7,517c0,4.7-0.8,9.8-2.5,15.3c-1.7,5.5-4.4,10.5-8.1,15.2c-3.7,4.7-8.6,8.6-14.6,11.7
	c-6,3.1-13.3,4.7-21.8,4.7h-61.5v-32.4h61.5c4.6,0,8.2-1.4,10.8-4.3c2.5-2.8,3.8-6.4,3.8-10.6c0-4.5-1.4-8-4.3-10.5
	c-2.8-2.5-6.3-3.8-10.3-3.8h-61.5c-4.6,0-8.2,1.4-10.8,4.3c-2.5,2.8-3.8,6.4-3.8,10.6v47.6c0,4.5,1.4,8.1,4.3,10.6
	c2.8,2.5,6.4,3.8,10.6,3.8h108.2v32.5h-108.5c-4.7,0-9.8-0.8-15.3-2.5c-5.5-1.7-10.5-4.3-15.2-8.1c-4.7-3.7-8.6-8.6-11.7-14.6
	c-3.1-6-4.7-13.3-4.7-21.8V517c0-4.7,0.8-9.8,2.5-15.3c1.7-5.5,4.3-10.5,8.1-15.2c3.7-4.7,8.6-8.6,14.6-11.7
	c6-3.1,13.3-4.7,21.8-4.7h61.5c4.7,0,9.8,0.8,15.3,2.5c5.5,1.7,10.5,4.4,15.2,8.1c4.7,3.7,8.6,8.6,11.7,14.6
	C1623.1,501.2,1624.7,508.5,1624.7,517z"/>
<rect x="530.8" y="1174.5" class="st1" width="187.8" height="119.7"/>
<rect x="778.5" y="1174.5" class="st3" width="187.8" height="119.7"/>
<rect x="1026.2" y="1174.5" class="st0" width="187.8" height="119.7"/>
<rect x="1260.8" y="1174.5" class="st4" width="187.8" height="119.7"/>
</svg>
