<?xml version="1.0" encoding="utf-8"?>
<!-- Generator: Adobe Illustrator 26.0.2, SVG Export Plug-In . SVG Version: 6.00 Build 0)  -->
<svg version="1.1" id="Livello_1" xmlns="http://www.w3.org/2000/svg" xmlns:xlink="http://www.w3.org/1999/xlink" x="0px" y="0px"
	 viewBox="0 0 388.3 388.3" style="enable-background:new 0 0 388.3 388.3;" xml:space="preserve">
<style type="text/css">
	.st0{fill:#FFFFFF;}
</style>
<path class="st0" d="M5.6,388.3h314c1.5,0,2.9-0.6,3.9-1.6l63-62.4c1.1-1.1,1.7-2.5,1.7-4V5.6c0-3.1-2.5-5.6-5.6-5.6H5.6
	C2.5,0,0,2.5,0,5.6c0,0,0,0,0,0v377.1C0,385.8,2.5,388.3,5.6,388.3C5.6,388.3,5.6,388.3,5.6,388.3L5.6,388.3z M11.2,70.1h365.9V309
	h-60.9c-3.1,0-5.6,2.5-5.6,5.6l0,0v62.5H11.2L11.2,70.1z M321.8,372.7v-52.5h53.1L321.8,372.7z M377.1,11.2v47.7H11.2V11.2
	L377.1,11.2z"/>
<path class="st0" d="M41.5,37.1c0,3.5-2.8,6.3-6.3,6.3s-6.3-2.8-6.3-6.3c0-3.5,2.8-6.3,6.3-6.3C38.6,30.8,41.5,33.6,41.5,37.1
	C41.5,37.1,41.5,37.1,41.5,37.1"/>
<path class="st0" d="M239.1,216.2c-4.2,0-8.2,1.5-11.4,4.3V219c-0.1-9.4-7.7-16.9-17.1-16.9c-4.1,0-8.1,1.5-11.1,4.3v-1.5
	c-0.1-9.4-7.7-16.9-17.1-16.9c-4.1,0-8.1,1.5-11.1,4.3v-22.6c0.9,0,1.8-0.2,2.6-0.6c20.7-10.8,28.8-36.4,18-57.1
	c-10.8-20.7-36.4-28.8-57.1-18s-28.8,36.4-18,57.1c4,7.7,10.3,14,18,18c0.8,0.4,1.7,0.6,2.6,0.6v59.4l-9-14.4
	c-1.8-3.2-4-6.2-6.6-8.8c-2.6-2.5-6.2-3.9-9.9-3.8c-4.2-0.3-8.3,1.5-11,4.8c-2,2.7-3.1,5.9-3.1,9.2c0,42.3,27.1,75.8,56.5,105.6V332
	c0,3.1,2.5,5.6,5.6,5.6l0,0h73.5c3.1,0,5.6-2.5,5.6-5.6l0,0v-21.4c9.6-10.4,15.5-23.6,16.9-37.6c0-0.2,0-0.4,0-0.7v-39.2
	c0.1-9.2-7.3-16.8-16.5-16.9C239.4,216.2,239.2,216.2,239.1,216.2L239.1,216.2z M123.2,131.4c0-17.2,14-31.1,31.2-31.1
	c17.2,0,31.1,14,31.1,31.2c0,10.6-5.4,20.4-14.3,26.1v-17.8c-0.2-9.3-8-16.7-17.3-16.5c-9,0.2-16.3,7.5-16.5,16.5v17.8
	C128.5,151.8,123.1,142,123.2,131.4L123.2,131.4z M244.8,272c-1.2,11.7-6.2,22.7-14.3,31.3c-1.7,1.6-2.6,3.8-2.6,6.1v17h-62.3v-5.6
	c0-2.3-0.8-4.5-2.4-6.1c-28.1-28.3-54.1-59.9-54.1-98.6l0,0c0-0.8,0.2-1.6,0.6-2.3c0.2-0.3,0.5-0.6,2.2-0.6l0,0
	c0.9-0.1,1.8,0.2,2.3,0.9c1.8,2,3.4,4.1,4.7,6.4l14.2,22.7c2.5,3.9,7.7,5.1,11.6,2.6c2.4-1.5,3.9-4.2,3.9-7.1v-98.9
	c0.1-3.2,2.8-5.6,5.9-5.5c3,0.1,5.3,2.5,5.5,5.5v65c0.2,4.7,4.1,8.3,8.7,8.1c4.4-0.2,8-3.7,8.1-8.1c-0.1-3.2,2.3-5.8,5.5-5.9
	c3.2-0.1,5.8,2.3,5.9,5.5c0,0.2,0,0.3,0,0.5V219c-0.2,4.7,3.5,8.6,8.1,8.7c4.7,0.2,8.6-3.5,8.7-8.1c0-0.2,0-0.4,0-0.6
	c0.1-3.2,2.8-5.6,5.9-5.5c3,0.1,5.3,2.5,5.5,5.5v14.2c-0.2,4.7,3.5,8.6,8.1,8.7c4.7,0.2,8.6-3.5,8.7-8.1c0-0.2,0-0.4,0-0.6
	c0.1-3.2,2.8-5.6,5.9-5.5c3,0.1,5.3,2.5,5.5,5.5L244.8,272z"/>
</svg>
