<?xml version="1.0" encoding="utf-8"?>
<!-- Generator: Adobe Illustrator 26.0.2, SVG Export Plug-In . SVG Version: 6.00 Build 0)  -->
<svg version="1.1" id="Livello_1" xmlns="http://www.w3.org/2000/svg" xmlns:xlink="http://www.w3.org/1999/xlink" x="0px" y="0px"
	 viewBox="0 0 496.9 377.6" style="enable-background:new 0 0 496.9 377.6;" xml:space="preserve">
<style type="text/css">
	.st0{fill:#FFFFFF;}
</style>
<path class="st0" d="M425.8,158.8c-7-2.8-14.4-4.9-21.8-6.3V19c0-10.5-8.5-19-19-19H51.5c-10.5,0-19,8.5-19,19v239.6
	c0,2.7,0.6,5.3,1.7,7.8H5.6c-3.1,0-5.6,2.5-5.6,5.6c0,0.3,0,0.6,0.1,1l6.7,37.9c0.5,2.7,2.8,4.6,5.5,4.6h270
	c28.3,55.9,96.6,78.2,152.5,49.9c55.9-28.3,78.2-96.6,49.9-152.5C472.2,188.3,451.3,169.1,425.8,158.8z M43.8,18.9
	c0-4.3,3.5-7.8,7.8-7.8H385c4.3,0,7.8,3.5,7.8,7.8v132.2c-3.1-0.2-6.2-0.4-9.3-0.4C320.8,150.6,270,201.3,270,263.9
	c0,0.1,0,0.2,0,0.3c0,0.7,0.1,1.4,0.1,2.1H51.5c-4.3,0-7.8-3.5-7.8-7.8L43.8,18.9L43.8,18.9z M17,304.2l-4.7-26.7h258.5
	c1.1,9.1,3.3,18.1,6.6,26.7H17z M383.5,366.4c-56.5,0-102.3-45.8-102.4-102.3c0-56.5,45.8-102.3,102.3-102.4
	c56.5,0,102.3,45.8,102.4,102.3c0,0,0,0.1,0,0.1C485.7,320.6,439.9,366.4,383.5,366.4z M432.7,229.1l-60,70.6l-39.2-31.3
	c-2.4-1.9-5.9-1.5-7.9,0.9s-1.5,5.9,0.9,7.9l43.5,34.6c2.4,1.9,5.8,1.6,7.8-0.8l63.4-74.8c2-2.4,1.7-5.9-0.6-7.9
	S434.7,226.7,432.7,229.1L432.7,229.1z M253.3,285.2h-70c-3.1,0.1-5.5,2.7-5.4,5.8c0.1,2.9,2.5,5.2,5.4,5.4h70
	c3.1,0.1,5.7-2.3,5.8-5.4c0.1-3.1-2.3-5.7-5.4-5.8C253.6,285.2,253.4,285.2,253.3,285.2z M218.3,37.5c4.6,0,8.3-3.7,8.3-8.3
	s-3.7-8.3-8.3-8.3s-8.3,3.7-8.3,8.3v0C209.9,33.8,213.7,37.5,218.3,37.5z M218.3,26.3c1.6,0,2.9,1.3,2.9,2.9c0,1.6-1.3,2.9-2.9,2.9
	s-2.9-1.3-2.9-2.9c0,0,0,0,0,0C215.4,27.6,216.7,26.3,218.3,26.3z"/>
</svg>
