<?xml version="1.0" encoding="utf-8"?>
<!-- Generator: Adobe Illustrator 26.0.2, SVG Export Plug-In . SVG Version: 6.00 Build 0)  -->
<svg version="1.1" id="Livello_2_00000003073280588546004710000007814064026319982224_"
	 xmlns="http://www.w3.org/2000/svg" xmlns:xlink="http://www.w3.org/1999/xlink" x="0px" y="0px" viewBox="0 0 414.6 261.3"
	 style="enable-background:new 0 0 414.6 261.3;" xml:space="preserve">
<style type="text/css">
	.st0{fill:none;stroke:#FFFFFF;stroke-width:10;stroke-linecap:round;stroke-linejoin:round;}
</style>
<rect x="5" y="82.3" class="st0" width="53" height="122"/>
<rect x="96" y="57" class="st0" width="53" height="147.4"/>
<rect x="187" y="32.7" class="st0" width="53" height="171.7"/>
<polyline class="st0" points="331,108.6 331,5 278,5 278,204.3 303.5,204.3 "/>
<rect x="303.5" y="160.4" class="st0" width="106.1" height="95.9"/>
<path class="st0" d="M389.9,129.8c-0.3-18.4-15.5-33.1-34-32.8c-18,0.3-32.5,14.8-32.8,32.8l0,0v30.6h66.8L389.9,129.8L389.9,129.8z
	"/>
<path class="st0" d="M339.6,238.2h33.9l-8-26.3c7.2-4.8,9-14.6,4.2-21.7c-4.8-7.2-14.6-9-21.7-4.2c-7.2,4.8-9,14.6-4.2,21.7
	c1.1,1.7,2.6,3.1,4.2,4.2l0,0L339.6,238.2z"/>
</svg>
