<svg id="Livello_1" data-name="Livello 1" xmlns="http://www.w3.org/2000/svg" viewBox="0 0 388.27 388.28"><defs><style>.cls-1{fill:#0e72ba;}</style></defs><path class="cls-1" d="M161.46,474.14h314a5.59,5.59,0,0,0,3.94-1.62l63-62.35a5.56,5.56,0,0,0,1.66-4V91.46a5.6,5.6,0,0,0-5.6-5.6H161.46a5.6,5.6,0,0,0-5.6,5.6V468.53a5.6,5.6,0,0,0,5.6,5.61ZM167.06,156H532.93V394.86H472a5.6,5.6,0,0,0-5.6,5.6V463H167.07ZM477.63,458.57V406.05h53.09Zm55.3-361.5V144.8H167.06V97.07Z" transform="translate(-155.86 -85.86)"/><path class="cls-1" d="M197.34,123a6.33,6.33,0,1,1-6.33-6.33,6.32,6.32,0,0,1,6.33,6.33" transform="translate(-155.86 -85.86)"/><path class="cls-1" d="M395,302.05a16.92,16.92,0,0,0-11.36,4.28v-1.51a17,17,0,0,0-28.26-12.62v-1.51a17,17,0,0,0-28.26-12.62V255.49a5.9,5.9,0,0,0,2.64-.63,42.34,42.34,0,1,0-39.09,0,6.07,6.07,0,0,0,2.64.63v59.43l-9-14.39a41.63,41.63,0,0,0-6.63-8.77,13.74,13.74,0,0,0-9.87-3.84,13.14,13.14,0,0,0-11,4.84,15.06,15.06,0,0,0-3.07,9.24c0,42.35,27.08,75.83,56.52,105.63v10.23a5.6,5.6,0,0,0,5.6,5.6h73.48a5.6,5.6,0,0,0,5.6-5.6V396.43a64.69,64.69,0,0,0,16.91-37.62,4.73,4.73,0,0,0,0-.65V319a16.7,16.7,0,0,0-16.9-16.9ZM279.07,217.22a31.14,31.14,0,1,1,48,26.23V225.69a16.91,16.91,0,0,0-33.81,0v17.76a31.14,31.14,0,0,1-14.23-26.23ZM400.69,357.83a53.62,53.62,0,0,1-14.33,31.33,8.49,8.49,0,0,0-2.63,6.1v17H321.45v-5.59a8.54,8.54,0,0,0-2.41-6.09c-28.1-28.35-54.1-59.91-54.1-98.59h0a4.09,4.09,0,0,1,.64-2.26c.21-.26.49-.63,2.24-.63h0a2.63,2.63,0,0,1,2.32.92,36.38,36.38,0,0,1,4.68,6.42L289,329.11a8.43,8.43,0,0,0,15.54-4.5V225.69a5.71,5.71,0,0,1,11.41,0v65a8.43,8.43,0,0,0,16.85,0,5.71,5.71,0,1,1,11.41,0v14.13a8.43,8.43,0,1,0,16.85,0,5.71,5.71,0,0,1,11.41,0V319a8.43,8.43,0,1,0,16.85,0,5.71,5.71,0,0,1,11.41,0Z" transform="translate(-155.86 -85.86)"/></svg>