<svg id="Livello_1" data-name="Livello 1" xmlns="http://www.w3.org/2000/svg" viewBox="0 0 496.94 377.63"><defs><style>.cls-1{fill:#0e72ba;}</style></defs><path class="cls-1" d="M527.32,250a112.26,112.26,0,0,0-21.84-6.27V110.14a19,19,0,0,0-19-19H153.07a19,19,0,0,0-19,19V349.69a18.85,18.85,0,0,0,1.7,7.76H107.13a5.61,5.61,0,0,0-5.52,6.57l6.68,37.91a5.6,5.6,0,0,0,5.51,4.63H383.85A113.44,113.44,0,1,0,527.32,250Zm-382-139.88a7.77,7.77,0,0,1,7.76-7.76H486.5a7.77,7.77,0,0,1,7.77,7.76V242.3c-3.09-.25-6.18-.44-9.3-.44A113.33,113.33,0,0,0,371.5,355.36c0,.71.09,1.4.11,2.11H153.06a7.78,7.78,0,0,1-7.76-7.77V110.14Zm-26.8,285.24-4.71-26.72H372.35a112.26,112.26,0,0,0,6.58,26.72ZM485,457.62A102.31,102.31,0,1,1,587.26,355.34,102.4,102.4,0,0,1,485,457.62Zm49.23-137.36-60,70.64L435,359.63a5.6,5.6,0,1,0-7,8.76L471.53,403a5.58,5.58,0,0,0,7.76-.75l63.45-74.79a5.59,5.59,0,1,0-8.53-7.24ZM354.79,376.41h-70a5.61,5.61,0,0,0,0,11.21h70a5.61,5.61,0,1,0,0-11.21Zm-35-247.74a8.34,8.34,0,1,0-8.34-8.34A8.35,8.35,0,0,0,319.79,128.67Zm0-11.19a2.86,2.86,0,1,1-2.86,2.85A2.86,2.86,0,0,1,319.79,117.48Z" transform="translate(-101.53 -91.18)"/></svg>