<?xml version="1.0" encoding="utf-8"?>
<!-- Generator: Adobe Illustrator 26.0.2, SVG Export Plug-In . SVG Version: 6.00 Build 0)  -->
<svg version="1.1" id="Livello_1" xmlns="http://www.w3.org/2000/svg" xmlns:xlink="http://www.w3.org/1999/xlink" x="0px" y="0px"
	 viewBox="0 0 1920 1080" style="enable-background:new 0 0 1920 1080;" xml:space="preserve">
<style type="text/css">
	.st0{fill:#FFFFFF;}
	.st1{fill:none;stroke:#FFFFFF;stroke-width:15;stroke-miterlimit:10;}
</style>
<g>
	<g>
		<path class="st0" d="M962.3,222.1c40,0,78.9,7.8,115.4,23.3c35.3,14.9,67,36.3,94.3,63.6c27.2,27.2,48.6,59,63.6,94.3
			c15.5,36.5,23.3,75.4,23.3,115.4s-7.8,78.9-23.3,115.4c-14.9,35.3-36.3,67-63.6,94.3c-27.2,27.2-59,48.6-94.3,63.6
			c-36.5,15.5-75.4,23.3-115.4,23.3s-78.9-7.8-115.4-23.3c-35.3-14.9-67-36.3-94.3-63.6c-27.2-27.2-48.6-59-63.6-94.3
			c-15.5-36.5-23.3-75.4-23.3-115.4s7.8-78.9,23.3-115.4c14.9-35.3,36.3-67,63.6-94.3c27.2-27.2,59-48.6,94.3-63.6
			C883.4,229.9,922.3,222.1,962.3,222.1 M962.3,207.1c-172.1,0-311.5,139.5-311.5,311.5s139.5,311.5,311.5,311.5
			s311.5-139.5,311.5-311.5S1134.4,207.1,962.3,207.1L962.3,207.1z"/>
	</g>
	<polyline class="st1" points="1103.7,446.9 964.4,590.4 820.9,451.1 	"/>
</g>
</svg>
