<?xml version="1.0" encoding="utf-8"?>
<!-- Generator: Adobe Illustrator 26.0.2, SVG Export Plug-In . SVG Version: 6.00 Build 0)  -->
<svg version="1.1" id="Livello_1" xmlns="http://www.w3.org/2000/svg" xmlns:xlink="http://www.w3.org/1999/xlink" x="0px" y="0px"
	 viewBox="0 0 504 384.3" style="enable-background:new 0 0 504 384.3;" xml:space="preserve">
<style type="text/css">
	.st0{fill:#FFFFFF;}
</style>
<path class="st0" d="M24.2,274.5c-19.6,36-6.3,81.1,29.7,100.7s81.1,6.3,100.7-29.7c5.1-9.3,8.1-19.5,8.8-30c2.5-0.7,5-1.6,7.4-2.8
	c0.2-0.1,0.3-0.2,0.5-0.3l38.8-22.2l72.3-37.4c0.2-0.1,0.4-0.2,0.6-0.3l36.1-22.5c5.5-3.5,10.8-7.3,15.8-11.6l31.6-30l3-2.3
	c6.8,4.6,15.1,6.4,23.2,5l84.1-13.8c17.7-2.9,29.8-19.6,26.9-37.3c0,0,0,0,0-0.1L485.1,27.3C482.6,11.5,468.9-0.1,453,0
	c-1.8,0-3.6,0.1-5.3,0.4l-84.1,13.8c-8.5,1.4-16.1,6.1-21.2,13.1l-0.4,0.6L121,60.4c-3.8,0.6-7.4,2.2-10.3,4.8l-95.7,83.3
	C4.3,158.2-1.2,172.5,0.2,187l6.5,58.1c1,8.3,4.7,16.1,10.5,22.2L24.2,274.5z M89.5,367.5c-31.8,0.1-57.6-25.5-57.7-57.2
	c-0.1-31.8,25.5-57.6,57.2-57.7c3.5,0,7,0.3,10.4,0.9c-2,1.4-3.9,2.8-5.8,4.4l-7.8,5.2c-4.6,3.1-8.6,6.8-11.9,11.2l-0.7,0.9
	c-6.1,8-9.7,17.6-10.4,27.6l-0.4,6.8c-0.1,1.6,0.3,3.1,1,4.5l1.7,3.2c1.3,2.5,3.2,4.6,5.5,6.3c0.1,0.1,0.3,0.2,0.4,0.2
	c0.4,0.3,0.7,0.5,1.1,0.7c3.7,2.2,8,3.5,12.3,3.6h4.6c1.7,0,3.4-0.2,5.1-0.6l7.8-1.9c1.5-0.4,3-0.9,4.4-1.6l10.8-5.5
	c3.2-1.6,6.7-2.4,10.3-2.5l9.1-0.2c0.3,0,0.5,0,0.8,0l7.2,0.9c0.6,0.1,1.4,0.1,2,0.2C143,345.7,118.5,367.4,89.5,367.5L89.5,367.5z
	 M73.1,236.1c-0.1-0.3-0.2-0.5-0.3-0.8l1-27.7c0-0.4,0.2-0.8,0.6-1l34.8-22.2c0.8-0.5,1.8-0.9,2.7-1l24.1-3.6
	c4.3-0.7,8.7,0.6,12,3.5l25.6,22.9l-15.2,14.5c-3.5,3.4-7.5,6.2-11.7,8.6l-17.4,9.5c-1.7,0.9-3.4,1.7-5.3,2.5l-3.1,1.3
	c-14.7-6.8-31.2-8.6-47-5.4L73.1,236.1z M88,311.2c3.8-2.8,8.5-4.3,13.2-4.2c0.3,0,0.7,0.1,1,0.1l-3.5,1.7c-0.3,0.1-0.6,0.3-0.9,0.3
	l-8,1.9c-0.3,0.1-0.6,0.1-0.8,0.1L88,311.2L88,311.2z M366.3,30.8L450.4,17c0.9-0.1,1.7-0.2,2.6-0.2c7.7,0,14.3,5.6,15.5,13.2
	L487,142.7c1.4,8.6-4.4,16.7-13,18.1c0,0,0,0,0,0l-84.1,13.8c-8.6,1.4-16.7-4.4-18.1-13c0,0,0,0,0,0L353.3,48.8
	C351.9,40.3,357.7,32.2,366.3,30.8C366.3,30.8,366.3,30.8,366.3,30.8L366.3,30.8z M26.3,160.9l95.6-83.2c0.5-0.4,1-0.6,1.6-0.7
	l212.9-31.2c0,2,0.1,3.9,0.4,5.8l18.5,112.7c0.6,3.2,1.6,6.3,3,9.2l-2.4,1.8c-0.3,0.2-0.5,0.4-0.7,0.6l-31.6,30
	c-4.2,3.6-8.7,6.9-13.4,9.8L274.4,238l-72.3,37.4l-38.8,22.2c-2.8,1.3-5.8,2.2-8.9,2.6c-2.5,0.3-5,0.3-7.4-0.1l-8-1
	c-0.3,0-0.7-0.1-1,0c-0.4-0.1-0.8-0.1-1.2-0.1l-9.5,0.2c-0.3,0-0.6,0-0.9,0.1c-6.3-5.7-15.3-9-25-9c-7,0-13.9,1.8-20,5.4
	c1.2-3.8,3-7.3,5.3-10.4l0.7-0.9c2.2-2.8,4.9-5.3,7.9-7.3l8.1-5.4c0.3-0.2,0.5-0.4,0.8-0.6c4.4-3.7,9.3-6.7,14.6-9l11.9-5
	c2.2-0.9,4.3-1.9,6.6-3.1l17.6-9.7c5.5-3,10.7-6.8,15.3-11.1l15.7-15c6.5-6.2,6.7-16.4,0.6-22.9c-0.3-0.3-0.6-0.7-1-1l-26.2-23.4
	c-7-6.2-16.4-8.9-25.6-7.5l-24.1,3.6c-3.3,0.5-6.4,1.7-9.2,3.4l-34.8,22.2c-5.1,3.2-8.2,8.7-8.4,14.6l-1,27.7
	c-0.1,2.8,0.5,5.6,1.7,8.1c-9,4.3-17,10.3-23.6,17.7l-4.8-5c-3.2-3.4-5.3-7.7-5.8-12.3l-6.5-57.9C16,176.2,19.5,167.2,26.3,160.9
	L26.3,160.9z"/>
</svg>
