<svg id="Livello_1" data-name="Livello 1" xmlns="http://www.w3.org/2000/svg" viewBox="0 0 504 384.31"><defs><style>.cls-1{fill:#0e72ba;}</style></defs><path class="cls-1" d="M116.61,362.36a74.26,74.26,0,1,0,139.27,41,45.85,45.85,0,0,0,7.38-2.78c.17-.09.34-.17.5-.27l38.76-22.2,72.29-37.41c.2-.1.39-.21.59-.33l36.1-22.49a125.68,125.68,0,0,0,15.76-11.61l31.56-30,3-2.28A32.06,32.06,0,0,0,485,279l84.11-13.81A32.53,32.53,0,0,0,596,227.81l-18.5-112.7A32.4,32.4,0,0,0,545.4,87.85a31.62,31.62,0,0,0-5.31.44L456,102.09a32.32,32.32,0,0,0-21.16,13.13l-.38.58-221,32.43A19.94,19.94,0,0,0,203.16,153L107.5,236.26A46.37,46.37,0,0,0,92.6,274.9L99.11,333a38,38,0,0,0,10.53,22.16Zm65.26,93a57.49,57.49,0,1,1,9.88-114.08c-2,1.37-3.95,2.79-5.82,4.36l-7.76,5.16A51,51,0,0,0,166.24,362l-.67.9a51.25,51.25,0,0,0-10.42,27.61l-.44,6.83a8.44,8.44,0,0,0,1,4.52l1.72,3.19a19.25,19.25,0,0,0,5.46,6.33c.12.1.27.16.4.25a7.85,7.85,0,0,0,1.11.68,25.31,25.31,0,0,0,12.33,3.62h4.62a19.79,19.79,0,0,0,5.06-.62l7.84-1.89a21.4,21.4,0,0,0,4.43-1.64l10.84-5.45a23.58,23.58,0,0,1,10.28-2.47l9.05-.16c.27,0,.54,0,.81,0l7.23.89c.64.1,1.36.1,2,.16a57.53,57.53,0,0,1-57,50.58ZM165.49,324a2.24,2.24,0,0,1-.27-.83l1-27.68a1.31,1.31,0,0,1,.58-1l34.76-22.17a7.4,7.4,0,0,1,2.73-1l24.13-3.59a14.79,14.79,0,0,1,12,3.52L266,294.12,250.8,308.66a55.54,55.54,0,0,1-11.72,8.56l-17.44,9.54c-1.73.89-3.45,1.73-5.29,2.49l-3.12,1.32a75.66,75.66,0,0,0-47-5.35Zm14.91,75.1a21.21,21.21,0,0,1,13.2-4.2c.34,0,.66.07,1,.09l-3.46,1.74a4.81,4.81,0,0,1-.91.34l-8,1.94a3.87,3.87,0,0,1-.84.08h-.94ZM458.71,118.66l84.1-13.81a16.25,16.25,0,0,1,2.59-.21,15.65,15.65,0,0,1,15.49,13.18l18.5,112.7a15.73,15.73,0,0,1-13,18.08l-84.11,13.8a15.73,15.73,0,0,1-18.07-13l-18.5-112.7a15.71,15.71,0,0,1,13-18.06Zm-340,130.11,95.6-83.19a3.28,3.28,0,0,1,1.6-.74l212.85-31.23a32.92,32.92,0,0,0,.41,5.84l18.5,112.7a32.71,32.71,0,0,0,3.05,9.16l-2.38,1.8a8.67,8.67,0,0,0-.74.62l-31.61,30a108.37,108.37,0,0,1-13.38,9.81l-35.81,22.3-72.31,37.43-38.8,22.22a29,29,0,0,1-8.95,2.57,25.5,25.5,0,0,1-7.43-.11l-8-1a10,10,0,0,0-1-.05,6.49,6.49,0,0,0-1.16-.06l-9.54.16c-.31,0-.61.05-.92.07-6.32-5.68-15.32-9-25-9a39,39,0,0,0-20,5.37A34.21,34.21,0,0,1,179,373l.66-.91a33.61,33.61,0,0,1,7.87-7.33l8.1-5.4a7.25,7.25,0,0,0,.76-.58,57.77,57.77,0,0,1,14.56-9l11.9-5c2.19-.92,4.31-1.94,6.64-3.14l17.65-9.66a72.77,72.77,0,0,0,15.26-11.15l15.68-15a16.17,16.17,0,0,0-.41-23.82l-26.19-23.36a31.66,31.66,0,0,0-25.6-7.55l-24.12,3.6a24.29,24.29,0,0,0-9.19,3.42l-34.77,22.17a18,18,0,0,0-8.4,14.64l-1,27.7a18.35,18.35,0,0,0,1.69,8.1,74.68,74.68,0,0,0-23.64,17.69l-4.85-5a21.26,21.26,0,0,1-5.84-12.33l-6.47-57.88a29.54,29.54,0,0,1,9.38-24.45Z" transform="translate(-92.41 -87.85)"/></svg>