<?xml version="1.0" encoding="utf-8"?>
<!-- Generator: Adobe Illustrator 26.0.2, SVG Export Plug-In . SVG Version: 6.00 Build 0)  -->
<svg version="1.1" id="Livello_1" xmlns="http://www.w3.org/2000/svg" xmlns:xlink="http://www.w3.org/1999/xlink" x="0px" y="0px"
	 viewBox="0 0 560 482" style="enable-background:new 0 0 560 482;" xml:space="preserve">
<style type="text/css">
	.st0{fill:#FFFFFF;}
</style>
<path class="st0" d="M223.9,273.3l52.5,53.7l147.3-144.3L276.4,38.4l-52.5,53.7l54.1,53H138.2v75.2H278L223.9,273.3z M155.7,202.8
	v-40.2h165.2l-72.3-70.7l28-28.7l122.1,119.5L276.6,302.2l-28-28.6l72.3-70.7L155.7,202.8L155.7,202.8z"/>
<path class="st0" d="M42.6,365.4h210.7v64.1H148.1V482h263.1v-52.5H305.9v-64.1h211.5c23.5,0,42.6-19.1,42.6-42.6V42.6
	C560,19.1,540.9,0,517.4,0H42.6C19.1,0,0,19.1,0,42.6v280.1C0,346.3,19.1,365.4,42.6,365.4L42.6,365.4z M393.7,447v17.5H165.6V447
	h105.3v-81.6h17.5V447H393.7z M17.5,42.6c0-13.9,11.3-25.1,25.1-25.1h474.7c13.9,0,25.1,11.3,25.1,25.1v280.1
	c0,13.9-11.3,25.1-25.1,25.1H42.6c-13.9,0-25.1-11.3-25.1-25.1L17.5,42.6z"/>
</svg>
